HIERARCHY
ROOT mixamorig:Hips
{
	OFFSET 0.000000 201.639420 0.000000
	CHANNELS 6 Xposition Yposition Zposition Xrotation Yrotation Zrotation
	JOINT mixamorig:Spine
	{
		OFFSET 0.006200 19.524994 -2.481800
		CHANNELS 3 Xrotation Yrotation Zrotation
		JOINT mixamorig:Spine1
		{
			OFFSET -0.000900 22.835007 -2.825400
			CHANNELS 3 Xrotation Yrotation Zrotation
			JOINT mixamorig:Spine2
			{
				OFFSET -0.020600 26.552490 -3.193300
				CHANNELS 3 Xrotation Yrotation Zrotation
				JOINT mixamorig:Neck
				{
					OFFSET -0.060000 30.701813 1.352200
					CHANNELS 3 Xrotation Yrotation Zrotation
					JOINT mixamorig:Head
					{
						OFFSET -0.087200 22.547607 3.670900
						CHANNELS 3 Xrotation Yrotation Zrotation
						JOINT mixamorig:HeadTop_End
						{
							OFFSET -0.830600 40.355194 7.893500
							CHANNELS 3 Xrotation Yrotation Zrotation
							End Site
							{
								OFFSET 0.000000 30.592346 0.000000
							}
						}
						JOINT mixamorig:RightEye
						{
							OFFSET -6.302100 18.118591 16.197100
							CHANNELS 3 Xrotation Yrotation Zrotation
							End Site
							{
								OFFSET 0.000000 30.592346 0.000000
							}
						}
						JOINT mixamorig:LeftEye
						{
							OFFSET 6.741500 18.382690 16.401899
							CHANNELS 3 Xrotation Yrotation Zrotation
							End Site
							{
								OFFSET 0.000000 30.592346 0.000000
							}
						}
					}
				}
				JOINT mixamorig:LeftShoulder
				{
					OFFSET 11.924900 18.230499 1.425400
					CHANNELS 3 Xrotation Yrotation Zrotation
					JOINT mixamorig:LeftArm
					{
						OFFSET 25.435989 -0.697632 -5.229300
						CHANNELS 3 Xrotation Yrotation Zrotation
						JOINT mixamorig:LeftForeArm
						{
							OFFSET 54.684776 0.000000 0.000000
							CHANNELS 3 Xrotation Yrotation Zrotation
							JOINT mixamorig:LeftHand
							{
								OFFSET 55.098175 0.000000 0.000000
								CHANNELS 3 Xrotation Yrotation Zrotation
								JOINT mixamorig:LeftHandMiddle1
								{
									OFFSET 23.369751 0.000000 0.000000
									CHANNELS 3 Xrotation Yrotation Zrotation
									JOINT mixamorig:LeftHandMiddle2
									{
										OFFSET 6.378677 0.000000 0.000000
										CHANNELS 3 Xrotation Yrotation Zrotation
										JOINT mixamorig:LeftHandMiddle3
										{
											OFFSET 6.148331 0.000000 0.000000
											CHANNELS 3 Xrotation Yrotation Zrotation
											JOINT mixamorig:LeftHandMiddle4
											{
												OFFSET 6.582504 0.000000 0.000000
												CHANNELS 3 Xrotation Yrotation Zrotation
												End Site
												{
													OFFSET -1.168900 6.395691 1.028606
												}
											}
										}
									}
								}
								JOINT mixamorig:LeftHandThumb1
								{
									OFFSET 7.235672 -3.848206 5.434273
									CHANNELS 3 Xrotation Yrotation Zrotation
									JOINT mixamorig:LeftHandThumb2
									{
										OFFSET 6.568451 -3.792297 3.792300
										CHANNELS 3 Xrotation Yrotation Zrotation
										JOINT mixamorig:LeftHandThumb3
										{
											OFFSET 6.063080 -3.500519 3.500518
											CHANNELS 3 Xrotation Yrotation Zrotation
											JOINT mixamorig:LeftHandThumb4
											{
												OFFSET 4.793182 -2.767334 2.767349
												CHANNELS 3 Xrotation Yrotation Zrotation
												End Site
												{
													OFFSET 0.101639 6.054260 1.275483
												}
											}
										}
									}
								}
								JOINT mixamorig:LeftHandIndex1
								{
									OFFSET 23.101074 -0.309540 4.992809
									CHANNELS 3 Xrotation Yrotation Zrotation
									JOINT mixamorig:LeftHandIndex2
									{
										OFFSET 6.226883 0.000000 0.000000
										CHANNELS 3 Xrotation Yrotation Zrotation
										JOINT mixamorig:LeftHandIndex3
										{
											OFFSET 6.094330 0.000000 0.000000
											CHANNELS 3 Xrotation Yrotation Zrotation
											JOINT mixamorig:LeftHandIndex4
											{
												OFFSET 5.482605 0.000000 0.000000
												CHANNELS 3 Xrotation Yrotation Zrotation
												End Site
												{
													OFFSET -1.427902 5.233032 0.797164
												}
											}
										}
									}
								}
								JOINT mixamorig:LeftHandRing1
								{
									OFFSET 22.299240 0.021149 -3.964172
									CHANNELS 3 Xrotation Yrotation Zrotation
									JOINT mixamorig:LeftHandRing2
									{
										OFFSET 6.321869 0.000000 0.000000
										CHANNELS 3 Xrotation Yrotation Zrotation
										JOINT mixamorig:LeftHandRing3
										{
											OFFSET 5.899796 0.000000 0.000000
											CHANNELS 3 Xrotation Yrotation Zrotation
											JOINT mixamorig:LeftHandRing4
											{
												OFFSET 6.517899 0.000000 0.000000
												CHANNELS 3 Xrotation Yrotation Zrotation
												End Site
												{
													OFFSET -1.637299 6.232208 0.980890
												}
											}
										}
									}
								}
								JOINT mixamorig:LeftHandPinky1
								{
									OFFSET 20.463791 -0.302338 -8.562233
									CHANNELS 3 Xrotation Yrotation Zrotation
									JOINT mixamorig:LeftHandPinky2
									{
										OFFSET 6.908646 0.000000 0.000000
										CHANNELS 3 Xrotation Yrotation Zrotation
										JOINT mixamorig:LeftHandPinky3
										{
											OFFSET 4.622849 0.000000 0.000000
											CHANNELS 3 Xrotation Yrotation Zrotation
											JOINT mixamorig:LeftHandPinky4
											{
												OFFSET 5.216080 0.000000 0.000000
												CHANNELS 3 Xrotation Yrotation Zrotation
												End Site
												{
													OFFSET -0.606308 5.116241 0.814926
												}
											}
										}
									}
								}
							}
						}
					}
				}
				JOINT mixamorig:RightShoulder
				{
					OFFSET -12.001300 18.284088 1.348900
					CHANNELS 3 Xrotation Yrotation Zrotation
					JOINT mixamorig:RightArm
					{
						OFFSET -25.308500 -0.751312 -5.164599
						CHANNELS 3 Xrotation Yrotation Zrotation
						JOINT mixamorig:RightForeArm
						{
							OFFSET -54.684429 0.000000 0.000000
							CHANNELS 3 Xrotation Yrotation Zrotation
							JOINT mixamorig:RightHand
							{
								OFFSET -55.150291 0.000000 0.000000
								CHANNELS 3 Xrotation Yrotation Zrotation
								JOINT mixamorig:RightHandMiddle1
								{
									OFFSET -23.317566 0.000000 0.000000
									CHANNELS 3 Xrotation Yrotation Zrotation
									JOINT mixamorig:RightHandMiddle2
									{
										OFFSET -6.378403 0.000000 0.000000
										CHANNELS 3 Xrotation Yrotation Zrotation
										JOINT mixamorig:RightHandMiddle3
										{
											OFFSET -6.148193 0.000000 0.000000
											CHANNELS 3 Xrotation Yrotation Zrotation
											JOINT mixamorig:RightHandMiddle4
											{
												OFFSET -6.583389 0.000000 0.000000
												CHANNELS 3 Xrotation Yrotation Zrotation
												End Site
												{
													OFFSET 1.171692 6.395905 1.029786
												}
											}
										}
									}
								}
								JOINT mixamorig:RightHandThumb1
								{
									OFFSET -7.190521 -3.860474 5.435846
									CHANNELS 3 Xrotation Yrotation Zrotation
									JOINT mixamorig:RightHandThumb2
									{
										OFFSET -6.567429 -3.791718 3.791708
										CHANNELS 3 Xrotation Yrotation Zrotation
										JOINT mixamorig:RightHandThumb3
										{
											OFFSET -6.062469 -3.500153 3.500166
											CHANNELS 3 Xrotation Yrotation Zrotation
											JOINT mixamorig:RightHandThumb4
											{
												OFFSET -4.792618 -2.767029 2.767022
												CHANNELS 3 Xrotation Yrotation Zrotation
												End Site
												{
													OFFSET -0.100327 6.053253 1.276754
												}
											}
										}
									}
								}
								JOINT mixamorig:RightHandIndex1
								{
									OFFSET -23.048981 -0.310791 4.992554
									CHANNELS 3 Xrotation Yrotation Zrotation
									JOINT mixamorig:RightHandIndex2
									{
										OFFSET -6.227539 0.000000 0.000000
										CHANNELS 3 Xrotation Yrotation Zrotation
										JOINT mixamorig:RightHandIndex3
										{
											OFFSET -6.095047 0.000000 0.000000
											CHANNELS 3 Xrotation Yrotation Zrotation
											JOINT mixamorig:RightHandIndex4
											{
												OFFSET -5.484772 0.000000 0.000000
												CHANNELS 3 Xrotation Yrotation Zrotation
												End Site
												{
													OFFSET 1.420593 5.237305 0.797056
												}
											}
										}
									}
								}
								JOINT mixamorig:RightHandRing1
								{
									OFFSET -22.246323 0.020569 -3.963762
									CHANNELS 3 Xrotation Yrotation Zrotation
									JOINT mixamorig:RightHandRing2
									{
										OFFSET -6.322128 0.000000 0.000000
										CHANNELS 3 Xrotation Yrotation Zrotation
										JOINT mixamorig:RightHandRing3
										{
											OFFSET -5.900024 0.000000 0.000000
											CHANNELS 3 Xrotation Yrotation Zrotation
											JOINT mixamorig:RightHandRing4
											{
												OFFSET -6.518356 0.000000 0.000000
												CHANNELS 3 Xrotation Yrotation Zrotation
												End Site
												{
													OFFSET 1.636398 6.232697 0.982186
												}
											}
										}
									}
								}
								JOINT mixamorig:RightHandPinky1
								{
									OFFSET -20.411011 -0.303314 -8.561701
									CHANNELS 3 Xrotation Yrotation Zrotation
									JOINT mixamorig:RightHandPinky2
									{
										OFFSET -6.907349 0.000000 0.000000
										CHANNELS 3 Xrotation Yrotation Zrotation
										JOINT mixamorig:RightHandPinky3
										{
											OFFSET -4.623840 0.000000 0.000000
											CHANNELS 3 Xrotation Yrotation Zrotation
											JOINT mixamorig:RightHandPinky4
											{
												OFFSET -5.218353 0.000000 0.000000
												CHANNELS 3 Xrotation Yrotation Zrotation
												End Site
												{
													OFFSET 0.602097 5.118835 0.816273
												}
											}
										}
									}
								}
							}
						}
					}
				}
			}
		}
	}
	JOINT mixamorig:LeftUpLeg
	{
		OFFSET 18.168400 -13.561905 -0.039000
		CHANNELS 3 Xrotation Yrotation Zrotation
		JOINT mixamorig:LeftLeg
		{
			OFFSET 0.577358 -80.825211 -3.695000
			CHANNELS 3 Xrotation Yrotation Zrotation
			JOINT mixamorig:LeftFoot
			{
				OFFSET -0.577356 -83.370262 -6.520700
				CHANNELS 3 Xrotation Yrotation Zrotation
				JOINT mixamorig:LeftToeBase
				{
					OFFSET 0.750401 -20.798306 25.135401
					CHANNELS 3 Xrotation Yrotation Zrotation
					JOINT mixamorig:LeftToe_End
					{
						OFFSET -0.000500 0.001200 19.917799
						CHANNELS 3 Xrotation Yrotation Zrotation
						End Site
						{
							OFFSET 0.000000 19.917805 0.000000
						}
					}
				}
			}
		}
	}
	JOINT mixamorig:RightUpLeg
	{
		OFFSET -18.162500 -13.585098 -0.041000
		CHANNELS 3 Xrotation Yrotation Zrotation
		JOINT mixamorig:RightLeg
		{
			OFFSET -0.595024 -80.945297 -3.631900
			CHANNELS 3 Xrotation Yrotation Zrotation
			JOINT mixamorig:RightFoot
			{
				OFFSET 0.595024 -83.218193 -6.561200
				CHANNELS 3 Xrotation Yrotation Zrotation
				JOINT mixamorig:RightToeBase
				{
					OFFSET -0.753601 -20.807106 25.115000
					CHANNELS 3 Xrotation Yrotation Zrotation
					JOINT mixamorig:RightToe_End
					{
						OFFSET 0.000299 0.001700 19.918200
						CHANNELS 3 Xrotation Yrotation Zrotation
						End Site
						{
							OFFSET 0.000000 19.918203 0.000000
						}
					}
				}
			}
		}
	}
}
MOTION
Frames: 5
Frame Time: 0.033333
-0.642021 490.947144 -34.889343 26.778163 16.873240 26.577596 6.297859 -4.029142 -2.845712 12.556913 -7.746430 -4.176520 12.556895 -7.746430 -4.176527 -1.487456 6.336380 -14.695080 1.682557 1.129266 -2.795451 0.000002 0.000000 -0.000000 0.000002 0.000000 -0.000000 0.000002 0.000000 -0.000000 1.043185 -8.307795 0.934510 7.960083 -8.524521 -31.529393 87.841711 -80.343181 47.196395 5.095860 23.619493 65.604548 -0.096411 1.458982 -6.766892 -5.766574 -5.064561 -77.712520 0.000006 -0.000009 -0.000002 -0.000001 -0.000000 0.000004 -19.679370 9.495694 11.298784 -17.470241 1.488587 25.724482 0.000002 0.000021 -0.000001 -0.000001 0.000002 0.000001 2.363662 -3.933848 -5.741069 -8.670034 -3.972398 -85.821839 -0.000002 0.000000 0.000002 -0.000001 -0.000000 -0.000004 -4.816118 9.552853 -9.742369 -1.015424 -5.826568 -85.900974 0.000001 0.000017 0.000004 -0.000001 0.000000 -0.000002 -7.999322 9.664331 -9.712637 0.380883 -7.497895 -80.815509 -0.000004 -0.000009 0.000003 0.000000 0.000000 0.000002 3.716959 8.265895 5.555123 17.259374 -11.854170 55.946558 116.816206 53.528968 -102.249824 30.586523 -28.832906 -68.791029 -7.344981 -1.454172 -4.600835 -7.625072 2.379983 100.739649 0.000012 0.000011 -0.000010 0.000001 -0.000001 -0.000000 -18.241217 9.661046 -25.991906 -2.421235 -9.915944 -10.001785 -0.000006 0.000004 -0.000000 -0.000002 -0.000001 0.000005 -3.447346 -0.063439 -9.340099 -7.139527 1.915007 94.939281 0.000004 0.000006 -0.000006 0.000001 -0.000000 -0.000001 -7.838857 -10.971461 -8.078533 -2.787552 5.868631 98.383677 -0.000008 0.000006 -0.000003 -0.000001 0.000000 0.000000 -10.781349 -15.207018 -7.912452 -1.561984 10.323793 96.602972 0.000003 0.000015 0.000002 -0.000001 -0.000000 -0.000000 -50.235010 10.923377 38.526881 104.558728 5.131084 0.563407 0.505496 0.208019 -6.599160 1.521213 -5.241348 8.916279 -0.000001 0.000002 0.000000 -47.113832 0.506409 -25.744308 18.114433 -24.313585 -6.565602 41.750423 2.046355 4.305007 0.093423 0.113207 -0.076743 0.000001 -0.000002 0.000002 
-2.742027 497.313843 -35.414612 25.962375 19.482160 32.058470 6.845061 -4.817833 -3.100819 13.640246 -9.199826 -4.550137 13.640254 -9.199819 -4.550139 0.948377 6.140392 -16.958624 1.466277 1.203006 -1.077844 0.000001 0.000000 -0.000002 0.000001 0.000000 -0.000002 0.000001 0.000000 -0.000002 1.253711 -11.434551 -0.272678 5.468440 -12.129457 -28.596346 55.464746 -77.322707 14.072374 2.017278 20.028480 66.952663 0.138776 1.462351 -7.604771 -5.719591 -5.065761 -77.362349 0.000007 -0.000009 0.000004 -0.000000 -0.000000 0.000004 -19.262981 9.539249 11.082638 -17.241417 1.540020 25.383831 0.000004 0.000025 -0.000002 0.000000 -0.000000 0.000003 2.564030 -4.075169 -6.841800 -8.566695 -3.996629 -85.240201 -0.000001 -0.000001 0.000002 -0.000001 -0.000000 -0.000001 -4.814345 9.684821 -10.659887 -1.016260 -5.789601 -85.559621 -0.000000 0.000018 -0.000005 -0.000001 -0.000001 0.000002 -8.082029 9.922028 -11.009612 0.369329 -7.468475 -80.515670 -0.000003 -0.000009 0.000006 0.000000 0.000000 -0.000002 3.567334 7.479327 7.016675 14.128933 -9.892890 55.285641 113.764744 51.761475 -101.157103 31.269566 -30.261034 -64.259212 -7.323702 -1.539373 -5.331671 -7.559688 2.455171 99.847564 0.000012 0.000010 -0.000009 0.000000 0.000000 -0.000000 -18.402278 9.620159 -26.129666 -2.269519 -8.752407 -9.342434 -0.000008 0.000004 -0.000006 0.000001 0.000000 0.000002 -3.451689 -0.143652 -10.118625 -7.040503 1.967698 93.916406 0.000003 0.000006 -0.000003 0.000001 0.000000 -0.000000 -7.788696 -11.055541 -8.614284 -2.764149 5.824066 97.640587 -0.000008 0.000006 -0.000005 -0.000001 -0.000000 0.000001 -10.696083 -15.286185 -8.429137 -1.553390 10.254686 95.947991 0.000003 0.000015 0.000001 -0.000001 -0.000000 0.000001 -59.199606 8.955784 42.646882 109.991133 2.767972 0.378029 0.040151 0.197076 -5.914825 2.477945 -5.879124 10.999973 -0.000000 -0.000000 0.000001 -48.681436 2.961989 -31.146072 20.842727 -21.614076 -6.733488 37.697105 1.872605 6.312212 0.029556 -0.087496 -0.062486 -0.000000 -0.000000 -0.000001 
-4.896301 503.758057 -36.586678 25.323486 22.124017 37.364499 7.234201 -5.578040 -3.297450 14.411460 -10.599828 -4.810733 14.411453 -10.599836 -4.810739 3.016326 5.921278 -18.592525 1.323219 1.526131 0.217303 -0.000001 0.000000 -0.000001 -0.000001 0.000000 -0.000001 -0.000001 0.000000 -0.000001 1.355049 -14.466650 -1.873478 3.122656 -15.666714 -25.056445 43.203252 -72.192197 0.865885 -0.945919 16.593624 67.350542 0.439276 1.457935 -8.663140 -5.658644 -5.066725 -76.906735 0.000007 -0.000009 0.000004 -0.000000 -0.000001 0.000004 -18.729649 9.591338 10.804774 -16.947627 1.603332 24.947522 0.000004 0.000022 -0.000003 0.000002 0.000000 -0.000001 2.818237 -4.267042 -8.235020 -8.433114 -4.026260 -84.488258 -0.000002 0.000000 0.000002 0.000000 0.000000 -0.000002 -4.805501 9.853358 -11.820882 -1.017135 -5.742116 -85.115352 -0.000002 0.000018 0.000000 -0.000001 0.000000 -0.000000 -8.174016 10.253074 -12.657630 0.354493 -7.430677 -80.124567 -0.000002 -0.000008 0.000001 0.000000 0.000000 -0.000001 3.448307 6.488888 8.060780 11.020087 -8.054979 55.372986 111.563176 50.721818 -101.267588 33.780022 -30.745817 -57.296633 -7.299791 -1.620760 -5.973172 -7.492706 2.527423 98.961532 0.000012 0.000012 -0.000012 -0.000001 0.000000 -0.000001 -18.559683 9.576397 -26.264024 -2.122755 -7.601220 -8.695971 -0.000006 0.000003 -0.000004 -0.000001 -0.000001 0.000001 -3.454969 -0.218030 -10.806937 -6.940981 2.017176 92.903140 0.000003 0.000006 -0.000005 0.000002 -0.000000 -0.000003 -7.732181 -11.134450 -9.064499 -2.740862 5.781175 96.899743 -0.000007 0.000006 -0.000002 -0.000001 0.000000 0.000001 -10.602538 -15.362390 -8.858924 -1.545161 10.188078 95.293044 0.000001 0.000015 0.000001 -0.000002 0.000000 0.000001 -69.648989 7.985034 43.484085 113.010930 1.227059 0.185676 0.198142 0.197977 -5.368564 3.104283 -5.475093 11.976836 -0.000000 0.000001 0.000001 -50.192468 5.974830 -36.985782 22.641228 -19.882206 -6.371132 35.955724 2.140172 8.900784 -0.079220 -0.194041 0.016190 -0.000000 0.000003 0.000001 
-7.083267 509.713806 -38.025085 24.063725 24.494488 42.343669 7.430162 -6.280531 -3.462268 14.792253 -11.935532 -5.056542 14.792248 -11.935535 -5.056547 4.090755 5.982417 -20.161463 1.489460 2.068300 1.382623 0.000000 -0.000001 0.000002 0.000000 -0.000001 0.000002 0.000000 -0.000001 0.000002 1.314663 -16.995900 -3.693021 1.076104 -18.684469 -22.235283 40.658491 -66.171877 -2.341492 -2.815712 12.688266 65.838277 0.802201 1.438526 -9.921196 -5.583260 -5.066976 -76.340314 0.000006 -0.000008 0.000002 0.000001 0.000000 -0.000001 -18.082379 9.648338 10.465340 -16.589961 1.676004 24.417511 0.000004 0.000017 -0.000005 0.000001 -0.000001 -0.000003 3.121964 -4.517663 -9.896764 -8.268817 -4.059571 -83.561928 -0.000003 0.000001 0.000004 -0.000002 0.000000 -0.000000 -4.783387 10.056548 -13.204998 -1.017854 -5.684336 -84.562714 -0.000002 0.000018 -0.000001 -0.000001 -0.000000 0.000001 -8.261228 10.654989 -14.635424 0.336521 -7.384783 -79.636475 -0.000002 -0.000008 -0.000000 0.000002 0.000000 0.000002 3.345113 5.557600 9.143322 7.812709 -6.379263 55.942285 109.715023 50.366495 -101.612472 37.916153 -30.218823 -48.240878 -7.273718 -1.698022 -6.531314 -7.424959 2.596192 98.091571 0.000012 0.000012 -0.000007 0.000001 0.000000 -0.000002 -18.712053 9.530787 -26.393941 -1.982527 -6.473335 -8.069826 -0.000003 0.000005 -0.000005 0.000002 -0.000000 -0.000000 -3.457125 -0.286600 -11.410611 -6.842161 2.062985 91.910427 0.000006 0.000006 -0.000004 -0.000000 0.000000 -0.000002 -7.670652 -11.208043 -9.436897 -2.718036 5.740279 96.169924 -0.000006 0.000005 -0.000002 -0.000000 0.000001 0.000001 -10.502764 -15.435094 -9.209921 -1.537381 10.124477 94.646143 0.000004 0.000015 0.000002 0.000000 -0.000000 0.000002 -80.098434 7.944653 43.018437 114.032795 0.486999 0.005750 0.613870 0.250692 -5.038123 3.721089 -4.666825 12.534787 -0.000000 -0.000002 -0.000001 -50.440787 9.033183 -43.648467 23.467680 -20.392973 -5.094645 36.101173 2.524917 9.932256 -0.101686 -0.101963 0.033268 0.000002 0.000001 -0.000001 
-9.070297 514.835205 -39.641747 21.737381 25.942759 46.666100 7.531935 -6.874094 -3.576278 14.981009 -13.115619 -5.254797 14.981018 -13.115626 -5.254789 3.958239 6.445929 -22.008137 2.038639 2.800271 2.610777 0.000000 0.000001 -0.000000 0.000000 0.000001 -0.000000 0.000000 0.000001 -0.000000 1.177559 -18.794425 -5.380887 -0.821959 -21.056599 -21.484495 39.823479 -58.978875 -3.012730 -3.167709 7.853113 62.309999 1.228067 1.394263 -11.367278 -5.491451 -5.065631 -75.645793 0.000006 -0.000009 0.000004 -0.000001 -0.000000 -0.000002 -17.315749 9.705957 10.059130 -16.164703 1.755616 23.788331 0.000004 0.000016 0.000000 0.000001 0.000001 -0.000000 3.472351 -4.841579 -11.817138 -8.070494 -4.094288 -82.440643 -0.000003 0.000000 -0.000004 -0.000001 0.000000 -0.000002 -4.739155 10.293684 -14.803274 -1.018096 -5.615700 -83.884620 0.000001 0.000018 -0.000005 -0.000000 0.000000 -0.000003 -8.325038 11.127419 -16.942636 0.315182 -7.330495 -79.034926 -0.000004 -0.000008 -0.000002 -0.000001 0.000001 -0.000002 3.245808 5.107306 10.599554 4.396064 -4.972785 56.280448 108.089233 50.455547 -101.703846 42.791767 -28.919431 -37.987344 -7.246108 -1.770784 -7.012055 -7.357599 2.660757 97.248466 0.000012 0.000012 -0.000011 0.000002 -0.000002 0.000001 -18.857898 9.484489 -26.518191 -1.850408 -5.381319 -7.471474 -0.000005 0.000004 -0.000005 -0.000001 -0.000000 0.000000 -3.458211 -0.349394 -11.935131 -6.745425 2.104872 90.950198 0.000003 0.000006 -0.000005 0.000001 -0.000000 -0.000002 -7.605738 -11.276123 -9.739311 -2.695920 5.701687 95.460684 -0.000006 0.000005 0.000001 -0.000001 0.000000 -0.000002 -10.399181 -15.503826 -9.490459 -1.530204 10.064433 94.016031 0.000004 0.000015 0.000001 -0.000001 -0.000000 0.000001 -89.962915 7.803189 42.788741 114.297178 -0.326869 -0.100861 1.538728 0.299023 -5.082667 4.825572 -4.154561 13.575675 -0.000000 0.000001 0.000002 -49.151872 11.398853 -50.553283 23.874136 -23.835470 -2.957149 36.405817 2.120369 8.417838 0.022064 0.079061 -0.006787 0.000002 0.000000 0.000000 
